<svg width="48" height="48" viewBox="0 0 48 48" fill="none" xmlns="http://www.w3.org/2000/svg">
  <g stroke="#4B3A2A" stroke-width="3" stroke-linecap="round" stroke-linejoin="round">
    <!-- Mástil -->
    <line x1="24" y1="6" x2="24" y2="30"></line>
    
    <!-- Vela izquierda -->
    <path d="M24 10 C18 14 18 22 24 26" fill="#E6D7B0"></path>
    <path d="M24 10 C18 14 18 22 24 26"></path>

    <!-- Vela derecha -->
    <path d="M24 10 C30 14 30 22 24 26" fill="#E6D7B0"></path>
    <path d="M24 10 C30 14 30 22 24 26"></path>

    <!-- Banderín -->
    <path d="M24 6 L32 10 L24 12 Z" fill="#4B3A2A"></path>

    <!-- Casco del barco -->
    <path d="M10 32 L38 32 L34 40 L14 40 Z" fill="#D2B48C"></path>
    <path d="M10 32 L38 32 L34 40 L14 40 Z"></path>

    <!-- Líneas decorativas del casco -->
    <line x1="16" y1="36" x2="32" y2="36"></line>
  </g>
</svg>
